<?xml version="1.0" encoding="UTF-8"?>
<svg id="Layer_2" data-name="Layer 2" xmlns="http://www.w3.org/2000/svg" viewBox="0 0 2200 1466">
  <defs>
    <style>
      .cls-1 {
        fill: #fff;
      }

      .cls-2 {
        fill: #d9dbe2;
      }
    </style>
  </defs>
  <g id="Background">
    <g>
      <rect class="cls-1" width="2200" height="1466"/>
      <g>
        <circle class="cls-2" cx="1100" cy="23.71" r="9.66"/>
        <circle class="cls-2" cx="1225.01" cy="23.71" r="9.66"/>
        <circle class="cls-2" cx="1350.02" cy="23.71" r="9.66"/>
        <circle class="cls-2" cx="1475.02" cy="23.71" r="9.66"/>
        <circle class="cls-2" cx="1600.03" cy="23.71" r="9.66"/>
        <circle class="cls-2" cx="1725.04" cy="23.71" r="9.66"/>
        <circle class="cls-2" cx="1850.05" cy="23.71" r="9.66"/>
        <circle class="cls-2" cx="1975.06" cy="23.71" r="9.66"/>
        <circle class="cls-2" cx="2100.07" cy="23.71" r="9.66"/>
        <circle class="cls-2" cx="1162.5" cy="80.48" r="9.66"/>
        <circle class="cls-2" cx="1287.51" cy="80.48" r="9.66"/>
        <circle class="cls-2" cx="1412.52" cy="80.48" r="9.66"/>
        <circle class="cls-2" cx="1537.53" cy="80.48" r="9.66"/>
        <circle class="cls-2" cx="1662.54" cy="80.48" r="9.66"/>
        <circle class="cls-2" cx="1787.55" cy="80.48" r="9.66"/>
        <circle class="cls-2" cx="1912.55" cy="80.48" r="9.66"/>
        <circle class="cls-2" cx="2037.56" cy="80.48" r="9.66"/>
        <circle class="cls-2" cx="2162.57" cy="80.48" r="9.66"/>
        <circle class="cls-2" cx="1100" cy="147.51" r="9.66"/>
        <circle class="cls-2" cx="1225.01" cy="147.51" r="9.66"/>
        <circle class="cls-2" cx="1350.02" cy="147.51" r="9.66"/>
        <circle class="cls-2" cx="1475.02" cy="147.51" r="9.66"/>
        <circle class="cls-2" cx="1600.03" cy="147.51" r="9.66"/>
        <circle class="cls-2" cx="1725.04" cy="147.51" r="9.66"/>
        <circle class="cls-2" cx="1850.05" cy="147.51" r="9.66"/>
        <circle class="cls-2" cx="1975.06" cy="147.51" r="9.66"/>
        <circle class="cls-2" cx="2100.07" cy="147.51" r="9.66"/>
        <circle class="cls-2" cx="1162.5" cy="204.28" r="9.66"/>
        <circle class="cls-2" cx="1287.51" cy="204.28" r="9.66"/>
        <circle class="cls-2" cx="1412.52" cy="204.28" r="9.66"/>
        <circle class="cls-2" cx="1537.53" cy="204.28" r="9.66"/>
        <circle class="cls-2" cx="1662.54" cy="204.28" r="9.66"/>
        <circle class="cls-2" cx="1787.55" cy="204.28" r="9.66"/>
        <circle class="cls-2" cx="1912.55" cy="204.28" r="9.66"/>
        <circle class="cls-2" cx="2037.56" cy="204.28" r="9.66"/>
        <circle class="cls-2" cx="2162.57" cy="204.28" r="9.66"/>
        <circle class="cls-2" cx="1100" cy="271.32" r="9.66"/>
        <circle class="cls-2" cx="1225.01" cy="271.32" r="9.66"/>
        <circle class="cls-2" cx="1350.02" cy="271.32" r="9.66"/>
        <circle class="cls-2" cx="1475.02" cy="271.32" r="9.66"/>
        <circle class="cls-2" cx="1600.03" cy="271.32" r="9.66"/>
        <circle class="cls-2" cx="1725.04" cy="271.32" r="9.66"/>
        <circle class="cls-2" cx="1850.05" cy="271.32" r="9.66"/>
        <circle class="cls-2" cx="1975.06" cy="271.32" r="9.66"/>
        <circle class="cls-2" cx="2100.07" cy="271.32" r="9.66"/>
        <circle class="cls-2" cx="1162.5" cy="328.08" r="9.66"/>
        <circle class="cls-2" cx="1287.51" cy="328.08" r="9.66"/>
        <circle class="cls-2" cx="1412.52" cy="328.08" r="9.66"/>
        <circle class="cls-2" cx="1537.53" cy="328.08" r="9.66"/>
        <circle class="cls-2" cx="1662.54" cy="328.08" r="9.66"/>
        <circle class="cls-2" cx="1787.55" cy="328.08" r="9.66"/>
        <circle class="cls-2" cx="1912.55" cy="328.08" r="9.66"/>
        <circle class="cls-2" cx="2037.56" cy="328.08" r="9.66"/>
        <circle class="cls-2" cx="2162.57" cy="328.08" r="9.66"/>
        <circle class="cls-2" cx="1100" cy="395.12" r="9.66"/>
        <circle class="cls-2" cx="1225.01" cy="395.12" r="9.66"/>
        <circle class="cls-2" cx="1350.02" cy="395.12" r="9.66"/>
        <circle class="cls-2" cx="1475.02" cy="395.12" r="9.66"/>
        <circle class="cls-2" cx="1600.03" cy="395.12" r="9.66"/>
        <circle class="cls-2" cx="1725.04" cy="395.12" r="9.66"/>
        <circle class="cls-2" cx="1850.05" cy="395.12" r="9.66"/>
        <circle class="cls-2" cx="1975.06" cy="395.12" r="9.66"/>
        <circle class="cls-2" cx="2100.07" cy="395.12" r="9.66"/>
        <circle class="cls-2" cx="1162.5" cy="451.88" r="9.66"/>
        <circle class="cls-2" cx="1287.51" cy="451.88" r="9.66"/>
        <circle class="cls-2" cx="1412.52" cy="451.88" r="9.66"/>
        <circle class="cls-2" cx="1537.53" cy="451.88" r="9.66"/>
        <circle class="cls-2" cx="1662.54" cy="451.88" r="9.66"/>
        <circle class="cls-2" cx="1787.55" cy="451.88" r="9.66"/>
        <circle class="cls-2" cx="1912.55" cy="451.88" r="9.66"/>
        <circle class="cls-2" cx="2037.56" cy="451.88" r="9.66"/>
        <circle class="cls-2" cx="2162.57" cy="451.88" r="9.66"/>
        <circle class="cls-2" cx="1100" cy="518.92" r="9.66"/>
        <circle class="cls-2" cx="1225.01" cy="518.92" r="9.66"/>
        <circle class="cls-2" cx="1350.02" cy="518.92" r="9.66"/>
        <circle class="cls-2" cx="1475.02" cy="518.92" r="9.66"/>
        <circle class="cls-2" cx="1600.03" cy="518.92" r="9.66"/>
        <circle class="cls-2" cx="1725.04" cy="518.92" r="9.66"/>
        <circle class="cls-2" cx="1850.05" cy="518.92" r="9.66"/>
        <circle class="cls-2" cx="1975.06" cy="518.92" r="9.66"/>
        <circle class="cls-2" cx="2100.07" cy="518.92" r="9.66"/>
        <circle class="cls-2" cx="1162.5" cy="575.68" r="9.66"/>
        <circle class="cls-2" cx="1287.51" cy="575.68" r="9.66"/>
        <circle class="cls-2" cx="1412.52" cy="575.68" r="9.66"/>
        <circle class="cls-2" cx="1537.53" cy="575.68" r="9.66"/>
        <circle class="cls-2" cx="1662.54" cy="575.68" r="9.66"/>
        <circle class="cls-2" cx="1787.55" cy="575.68" r="9.66"/>
        <circle class="cls-2" cx="1912.55" cy="575.68" r="9.66"/>
        <circle class="cls-2" cx="2037.56" cy="575.68" r="9.66"/>
        <circle class="cls-2" cx="2162.57" cy="575.68" r="9.66"/>
        <circle class="cls-2" cx="1100" cy="642.72" r="9.66"/>
        <circle class="cls-2" cx="1225.01" cy="642.72" r="9.66"/>
        <circle class="cls-2" cx="1350.02" cy="642.72" r="9.66"/>
        <circle class="cls-2" cx="1475.02" cy="642.72" r="9.66"/>
        <circle class="cls-2" cx="1600.03" cy="642.72" r="9.66"/>
        <circle class="cls-2" cx="1725.04" cy="642.72" r="9.66"/>
        <circle class="cls-2" cx="1850.05" cy="642.72" r="9.66"/>
        <circle class="cls-2" cx="1975.06" cy="642.72" r="9.66"/>
        <circle class="cls-2" cx="2100.07" cy="642.72" r="9.66"/>
        <circle class="cls-2" cx="1162.5" cy="699.48" r="9.66"/>
        <circle class="cls-2" cx="1287.51" cy="699.48" r="9.66"/>
        <circle class="cls-2" cx="1412.52" cy="699.48" r="9.66"/>
        <circle class="cls-2" cx="1537.53" cy="699.48" r="9.66"/>
        <circle class="cls-2" cx="1662.54" cy="699.48" r="9.66"/>
        <circle class="cls-2" cx="1787.55" cy="699.48" r="9.66"/>
        <circle class="cls-2" cx="1912.55" cy="699.48" r="9.66"/>
        <circle class="cls-2" cx="2037.56" cy="699.48" r="9.66"/>
        <circle class="cls-2" cx="2162.57" cy="699.48" r="9.66"/>
        <circle class="cls-2" cx="1100" cy="766.52" r="9.66"/>
        <circle class="cls-2" cx="1225.01" cy="766.52" r="9.66"/>
        <circle class="cls-2" cx="1350.02" cy="766.52" r="9.66"/>
        <circle class="cls-2" cx="1475.02" cy="766.52" r="9.66"/>
        <circle class="cls-2" cx="1600.03" cy="766.52" r="9.66"/>
        <circle class="cls-2" cx="1725.04" cy="766.52" r="9.66"/>
        <circle class="cls-2" cx="1850.05" cy="766.52" r="9.66"/>
        <circle class="cls-2" cx="1975.06" cy="766.52" r="9.66"/>
        <circle class="cls-2" cx="2100.07" cy="766.52" r="9.66"/>
        <circle class="cls-2" cx="1162.5" cy="823.28" r="9.66"/>
        <circle class="cls-2" cx="1287.51" cy="823.28" r="9.66"/>
        <circle class="cls-2" cx="1412.52" cy="823.28" r="9.66"/>
        <circle class="cls-2" cx="1537.53" cy="823.28" r="9.66"/>
        <circle class="cls-2" cx="1662.54" cy="823.28" r="9.66"/>
        <circle class="cls-2" cx="1787.55" cy="823.28" r="9.66"/>
        <circle class="cls-2" cx="1912.55" cy="823.28" r="9.66"/>
        <circle class="cls-2" cx="2037.56" cy="823.28" r="9.66"/>
        <circle class="cls-2" cx="2162.57" cy="823.28" r="9.66"/>
        <circle class="cls-2" cx="1100" cy="890.32" r="9.66"/>
        <circle class="cls-2" cx="1225.01" cy="890.32" r="9.66"/>
        <circle class="cls-2" cx="1350.02" cy="890.32" r="9.66"/>
        <circle class="cls-2" cx="1475.02" cy="890.32" r="9.66"/>
        <circle class="cls-2" cx="1600.03" cy="890.32" r="9.66"/>
        <circle class="cls-2" cx="1725.04" cy="890.32" r="9.66"/>
        <circle class="cls-2" cx="1850.05" cy="890.32" r="9.66"/>
        <circle class="cls-2" cx="1975.06" cy="890.32" r="9.66"/>
        <circle class="cls-2" cx="2100.07" cy="890.32" r="9.66"/>
        <circle class="cls-2" cx="1162.5" cy="947.08" r="9.66"/>
        <circle class="cls-2" cx="1287.51" cy="947.08" r="9.66"/>
        <circle class="cls-2" cx="1412.52" cy="947.08" r="9.66"/>
        <circle class="cls-2" cx="1537.53" cy="947.08" r="9.66"/>
        <circle class="cls-2" cx="1662.54" cy="947.08" r="9.66"/>
        <circle class="cls-2" cx="1787.55" cy="947.08" r="9.66"/>
        <circle class="cls-2" cx="1912.55" cy="947.08" r="9.66"/>
        <circle class="cls-2" cx="2037.56" cy="947.08" r="9.66"/>
        <circle class="cls-2" cx="2162.57" cy="947.08" r="9.66"/>
        <circle class="cls-2" cx="1100" cy="1014.12" r="9.66"/>
        <circle class="cls-2" cx="1225.01" cy="1014.12" r="9.66"/>
        <circle class="cls-2" cx="1350.02" cy="1014.12" r="9.66"/>
        <circle class="cls-2" cx="1475.02" cy="1014.12" r="9.66"/>
        <circle class="cls-2" cx="1600.03" cy="1014.12" r="9.66"/>
        <circle class="cls-2" cx="1725.04" cy="1014.12" r="9.66"/>
        <circle class="cls-2" cx="1850.05" cy="1014.12" r="9.66"/>
        <circle class="cls-2" cx="1975.06" cy="1014.12" r="9.66"/>
        <circle class="cls-2" cx="2100.07" cy="1014.12" r="9.66"/>
        <circle class="cls-2" cx="1162.5" cy="1070.88" r="9.66"/>
        <circle class="cls-2" cx="1287.51" cy="1070.88" r="9.66"/>
        <circle class="cls-2" cx="1412.52" cy="1070.88" r="9.66"/>
        <circle class="cls-2" cx="1537.53" cy="1070.88" r="9.66"/>
        <circle class="cls-2" cx="1662.54" cy="1070.88" r="9.66"/>
        <circle class="cls-2" cx="1787.55" cy="1070.88" r="9.66"/>
        <circle class="cls-2" cx="1912.55" cy="1070.88" r="9.66"/>
        <circle class="cls-2" cx="2037.56" cy="1070.88" r="9.66"/>
        <circle class="cls-2" cx="2162.57" cy="1070.88" r="9.66"/>
        <circle class="cls-2" cx="1100" cy="1137.92" r="9.66"/>
        <circle class="cls-2" cx="1225.01" cy="1137.92" r="9.66"/>
        <circle class="cls-2" cx="1350.02" cy="1137.92" r="9.66"/>
        <circle class="cls-2" cx="1475.02" cy="1137.92" r="9.66"/>
        <circle class="cls-2" cx="1600.03" cy="1137.92" r="9.66"/>
        <circle class="cls-2" cx="1725.04" cy="1137.92" r="9.66"/>
        <circle class="cls-2" cx="1850.05" cy="1137.92" r="9.66"/>
        <circle class="cls-2" cx="1975.06" cy="1137.92" r="9.66"/>
        <circle class="cls-2" cx="2100.07" cy="1137.92" r="9.66"/>
        <circle class="cls-2" cx="1162.5" cy="1194.68" r="9.66"/>
        <circle class="cls-2" cx="1287.51" cy="1194.68" r="9.66"/>
        <circle class="cls-2" cx="1412.52" cy="1194.68" r="9.66"/>
        <circle class="cls-2" cx="1537.53" cy="1194.68" r="9.66"/>
        <circle class="cls-2" cx="1662.54" cy="1194.68" r="9.66"/>
        <circle class="cls-2" cx="1787.55" cy="1194.68" r="9.66"/>
        <circle class="cls-2" cx="1912.55" cy="1194.68" r="9.66"/>
        <circle class="cls-2" cx="2037.56" cy="1194.68" r="9.66"/>
        <circle class="cls-2" cx="2162.57" cy="1194.68" r="9.66"/>
        <circle class="cls-2" cx="1100" cy="1261.72" r="9.66"/>
        <circle class="cls-2" cx="1225.01" cy="1261.72" r="9.66"/>
        <circle class="cls-2" cx="1350.02" cy="1261.72" r="9.66"/>
        <circle class="cls-2" cx="1475.02" cy="1261.72" r="9.66"/>
        <circle class="cls-2" cx="1600.03" cy="1261.72" r="9.66"/>
        <circle class="cls-2" cx="1725.04" cy="1261.72" r="9.66"/>
        <circle class="cls-2" cx="1850.05" cy="1261.72" r="9.66"/>
        <circle class="cls-2" cx="1975.06" cy="1261.72" r="9.66"/>
        <circle class="cls-2" cx="2100.07" cy="1261.72" r="9.66"/>
        <circle class="cls-2" cx="1162.5" cy="1318.49" r="9.66"/>
        <circle class="cls-2" cx="1287.51" cy="1318.49" r="9.66"/>
        <circle class="cls-2" cx="1412.52" cy="1318.49" r="9.66"/>
        <circle class="cls-2" cx="1537.53" cy="1318.49" r="9.66"/>
        <circle class="cls-2" cx="1662.54" cy="1318.49" r="9.66"/>
        <circle class="cls-2" cx="1787.55" cy="1318.49" r="9.66"/>
        <circle class="cls-2" cx="1912.55" cy="1318.49" r="9.66"/>
        <circle class="cls-2" cx="2037.56" cy="1318.49" r="9.66"/>
        <circle class="cls-2" cx="2162.57" cy="1318.49" r="9.66"/>
        <circle class="cls-2" cx="1100" cy="1385.52" r="9.66"/>
        <circle class="cls-2" cx="1225.01" cy="1385.52" r="9.66"/>
        <circle class="cls-2" cx="1350.02" cy="1385.52" r="9.66"/>
        <circle class="cls-2" cx="1475.02" cy="1385.52" r="9.66"/>
        <circle class="cls-2" cx="1600.03" cy="1385.52" r="9.66"/>
        <circle class="cls-2" cx="1725.04" cy="1385.52" r="9.66"/>
        <circle class="cls-2" cx="1850.05" cy="1385.52" r="9.66"/>
        <circle class="cls-2" cx="1975.06" cy="1385.52" r="9.66"/>
        <circle class="cls-2" cx="2100.07" cy="1385.52" r="9.66"/>
        <circle class="cls-2" cx="1162.5" cy="1442.29" r="9.66"/>
        <circle class="cls-2" cx="1287.51" cy="1442.29" r="9.66"/>
        <circle class="cls-2" cx="1412.52" cy="1442.29" r="9.66"/>
        <circle class="cls-2" cx="1537.53" cy="1442.29" r="9.66"/>
        <circle class="cls-2" cx="1662.54" cy="1442.29" r="9.66"/>
        <circle class="cls-2" cx="1787.55" cy="1442.29" r="9.66"/>
        <circle class="cls-2" cx="1912.55" cy="1442.29" r="9.66"/>
        <circle class="cls-2" cx="2037.56" cy="1442.29" r="9.66"/>
        <circle class="cls-2" cx="2162.57" cy="1442.29" r="9.66"/>
        <circle class="cls-2" cx="99.93" cy="23.71" r="9.66"/>
        <circle class="cls-2" cx="224.94" cy="23.71" r="9.66"/>
        <circle class="cls-2" cx="349.95" cy="23.71" r="9.66"/>
        <circle class="cls-2" cx="474.96" cy="23.71" r="9.66"/>
        <circle class="cls-2" cx="599.97" cy="23.71" r="9.66"/>
        <circle class="cls-2" cx="724.98" cy="23.71" r="9.66"/>
        <circle class="cls-2" cx="849.98" cy="23.71" r="9.66"/>
        <circle class="cls-2" cx="974.99" cy="23.71" r="9.66"/>
        <circle class="cls-2" cx="37.43" cy="80.48" r="9.66"/>
        <circle class="cls-2" cx="162.44" cy="80.48" r="9.66"/>
        <circle class="cls-2" cx="287.45" cy="80.48" r="9.66"/>
        <circle class="cls-2" cx="412.45" cy="80.48" r="9.66"/>
        <circle class="cls-2" cx="537.46" cy="80.48" r="9.66"/>
        <circle class="cls-2" cx="662.47" cy="80.48" r="9.66"/>
        <circle class="cls-2" cx="787.48" cy="80.48" r="9.66"/>
        <circle class="cls-2" cx="912.49" cy="80.48" r="9.66"/>
        <circle class="cls-2" cx="1037.5" cy="80.48" r="9.66"/>
        <circle class="cls-2" cx="99.93" cy="147.51" r="9.66"/>
        <circle class="cls-2" cx="224.94" cy="147.51" r="9.66"/>
        <circle class="cls-2" cx="349.95" cy="147.51" r="9.66"/>
        <circle class="cls-2" cx="474.96" cy="147.51" r="9.66"/>
        <circle class="cls-2" cx="599.97" cy="147.51" r="9.66"/>
        <circle class="cls-2" cx="724.98" cy="147.51" r="9.66"/>
        <circle class="cls-2" cx="849.98" cy="147.51" r="9.66"/>
        <circle class="cls-2" cx="974.99" cy="147.51" r="9.66"/>
        <circle class="cls-2" cx="37.43" cy="204.28" r="9.66"/>
        <circle class="cls-2" cx="162.44" cy="204.28" r="9.66"/>
        <circle class="cls-2" cx="287.45" cy="204.28" r="9.66"/>
        <circle class="cls-2" cx="412.45" cy="204.28" r="9.66"/>
        <circle class="cls-2" cx="537.46" cy="204.28" r="9.66"/>
        <circle class="cls-2" cx="662.47" cy="204.28" r="9.66"/>
        <circle class="cls-2" cx="787.48" cy="204.28" r="9.66"/>
        <circle class="cls-2" cx="912.49" cy="204.28" r="9.66"/>
        <circle class="cls-2" cx="1037.5" cy="204.28" r="9.66"/>
        <circle class="cls-2" cx="99.93" cy="271.32" r="9.66"/>
        <circle class="cls-2" cx="224.94" cy="271.32" r="9.66"/>
        <circle class="cls-2" cx="349.95" cy="271.32" r="9.66"/>
        <circle class="cls-2" cx="474.96" cy="271.32" r="9.66"/>
        <circle class="cls-2" cx="599.97" cy="271.32" r="9.66"/>
        <circle class="cls-2" cx="724.98" cy="271.32" r="9.66"/>
        <circle class="cls-2" cx="849.98" cy="271.32" r="9.66"/>
        <circle class="cls-2" cx="974.99" cy="271.32" r="9.66"/>
        <circle class="cls-2" cx="37.43" cy="328.08" r="9.66"/>
        <circle class="cls-2" cx="162.44" cy="328.08" r="9.66"/>
        <circle class="cls-2" cx="287.45" cy="328.08" r="9.66"/>
        <circle class="cls-2" cx="412.45" cy="328.08" r="9.66"/>
        <circle class="cls-2" cx="537.46" cy="328.08" r="9.66"/>
        <circle class="cls-2" cx="662.47" cy="328.08" r="9.66"/>
        <circle class="cls-2" cx="787.48" cy="328.08" r="9.66"/>
        <circle class="cls-2" cx="912.49" cy="328.08" r="9.66"/>
        <circle class="cls-2" cx="1037.5" cy="328.08" r="9.66"/>
        <circle class="cls-2" cx="99.93" cy="395.12" r="9.66"/>
        <circle class="cls-2" cx="224.94" cy="395.12" r="9.66"/>
        <circle class="cls-2" cx="349.95" cy="395.12" r="9.66"/>
        <circle class="cls-2" cx="474.96" cy="395.12" r="9.66"/>
        <circle class="cls-2" cx="599.97" cy="395.12" r="9.66"/>
        <circle class="cls-2" cx="724.98" cy="395.12" r="9.66"/>
        <circle class="cls-2" cx="849.98" cy="395.12" r="9.66"/>
        <circle class="cls-2" cx="974.99" cy="395.12" r="9.66"/>
        <circle class="cls-2" cx="37.43" cy="451.88" r="9.66"/>
        <circle class="cls-2" cx="162.44" cy="451.88" r="9.66"/>
        <circle class="cls-2" cx="287.45" cy="451.88" r="9.66"/>
        <circle class="cls-2" cx="412.45" cy="451.88" r="9.66"/>
        <circle class="cls-2" cx="537.46" cy="451.88" r="9.66"/>
        <circle class="cls-2" cx="662.47" cy="451.88" r="9.66"/>
        <circle class="cls-2" cx="787.48" cy="451.88" r="9.66"/>
        <circle class="cls-2" cx="912.49" cy="451.88" r="9.66"/>
        <circle class="cls-2" cx="1037.5" cy="451.88" r="9.66"/>
        <circle class="cls-2" cx="99.93" cy="518.92" r="9.66"/>
        <circle class="cls-2" cx="224.94" cy="518.92" r="9.66"/>
        <circle class="cls-2" cx="349.95" cy="518.92" r="9.66"/>
        <circle class="cls-2" cx="474.96" cy="518.92" r="9.66"/>
        <circle class="cls-2" cx="599.97" cy="518.92" r="9.66"/>
        <circle class="cls-2" cx="724.98" cy="518.92" r="9.66"/>
        <circle class="cls-2" cx="849.98" cy="518.92" r="9.66"/>
        <circle class="cls-2" cx="974.99" cy="518.92" r="9.66"/>
        <circle class="cls-2" cx="37.43" cy="575.68" r="9.66"/>
        <circle class="cls-2" cx="162.44" cy="575.68" r="9.66"/>
        <circle class="cls-2" cx="287.45" cy="575.68" r="9.66"/>
        <circle class="cls-2" cx="412.45" cy="575.68" r="9.66"/>
        <circle class="cls-2" cx="537.46" cy="575.68" r="9.66"/>
        <circle class="cls-2" cx="662.47" cy="575.68" r="9.66"/>
        <circle class="cls-2" cx="787.48" cy="575.68" r="9.66"/>
        <circle class="cls-2" cx="912.49" cy="575.68" r="9.66"/>
        <circle class="cls-2" cx="1037.5" cy="575.68" r="9.66"/>
        <circle class="cls-2" cx="99.93" cy="642.72" r="9.66"/>
        <circle class="cls-2" cx="224.94" cy="642.72" r="9.66"/>
        <circle class="cls-2" cx="349.95" cy="642.72" r="9.66"/>
        <circle class="cls-2" cx="474.96" cy="642.72" r="9.66"/>
        <circle class="cls-2" cx="599.97" cy="642.72" r="9.66"/>
        <circle class="cls-2" cx="724.98" cy="642.72" r="9.66"/>
        <circle class="cls-2" cx="849.98" cy="642.72" r="9.66"/>
        <circle class="cls-2" cx="974.99" cy="642.72" r="9.66"/>
        <circle class="cls-2" cx="37.43" cy="699.48" r="9.66"/>
        <circle class="cls-2" cx="162.44" cy="699.48" r="9.66"/>
        <circle class="cls-2" cx="287.45" cy="699.48" r="9.66"/>
        <circle class="cls-2" cx="412.45" cy="699.48" r="9.66"/>
        <circle class="cls-2" cx="537.46" cy="699.48" r="9.66"/>
        <circle class="cls-2" cx="662.47" cy="699.48" r="9.66"/>
        <circle class="cls-2" cx="787.48" cy="699.48" r="9.66"/>
        <circle class="cls-2" cx="912.49" cy="699.48" r="9.66"/>
        <circle class="cls-2" cx="1037.5" cy="699.48" r="9.66"/>
        <circle class="cls-2" cx="99.93" cy="766.52" r="9.66"/>
        <circle class="cls-2" cx="224.94" cy="766.52" r="9.66"/>
        <circle class="cls-2" cx="349.95" cy="766.52" r="9.66"/>
        <circle class="cls-2" cx="474.96" cy="766.52" r="9.66"/>
        <circle class="cls-2" cx="599.97" cy="766.52" r="9.66"/>
        <circle class="cls-2" cx="724.98" cy="766.52" r="9.66"/>
        <circle class="cls-2" cx="849.98" cy="766.52" r="9.66"/>
        <circle class="cls-2" cx="974.99" cy="766.52" r="9.66"/>
        <circle class="cls-2" cx="37.43" cy="823.28" r="9.66"/>
        <circle class="cls-2" cx="162.44" cy="823.28" r="9.66"/>
        <circle class="cls-2" cx="287.45" cy="823.28" r="9.66"/>
        <circle class="cls-2" cx="412.45" cy="823.28" r="9.66"/>
        <circle class="cls-2" cx="537.46" cy="823.28" r="9.66"/>
        <circle class="cls-2" cx="662.47" cy="823.28" r="9.66"/>
        <circle class="cls-2" cx="787.48" cy="823.28" r="9.66"/>
        <circle class="cls-2" cx="912.49" cy="823.28" r="9.66"/>
        <circle class="cls-2" cx="1037.5" cy="823.28" r="9.66"/>
        <circle class="cls-2" cx="99.93" cy="890.32" r="9.66"/>
        <circle class="cls-2" cx="224.94" cy="890.32" r="9.66"/>
        <circle class="cls-2" cx="349.95" cy="890.32" r="9.66"/>
        <circle class="cls-2" cx="474.96" cy="890.32" r="9.66"/>
        <circle class="cls-2" cx="599.97" cy="890.32" r="9.66"/>
        <circle class="cls-2" cx="724.98" cy="890.32" r="9.66"/>
        <circle class="cls-2" cx="849.98" cy="890.32" r="9.66"/>
        <circle class="cls-2" cx="974.99" cy="890.32" r="9.66"/>
        <circle class="cls-2" cx="37.43" cy="947.08" r="9.66"/>
        <circle class="cls-2" cx="162.44" cy="947.08" r="9.66"/>
        <circle class="cls-2" cx="287.45" cy="947.08" r="9.66"/>
        <circle class="cls-2" cx="412.45" cy="947.08" r="9.66"/>
        <circle class="cls-2" cx="537.46" cy="947.08" r="9.66"/>
        <circle class="cls-2" cx="662.47" cy="947.08" r="9.66"/>
        <circle class="cls-2" cx="787.48" cy="947.08" r="9.66"/>
        <circle class="cls-2" cx="912.49" cy="947.08" r="9.66"/>
        <circle class="cls-2" cx="1037.5" cy="947.08" r="9.66"/>
        <circle class="cls-2" cx="99.93" cy="1014.12" r="9.66"/>
        <circle class="cls-2" cx="224.94" cy="1014.12" r="9.66"/>
        <circle class="cls-2" cx="349.95" cy="1014.12" r="9.66"/>
        <circle class="cls-2" cx="474.96" cy="1014.12" r="9.66"/>
        <circle class="cls-2" cx="599.97" cy="1014.12" r="9.66"/>
        <circle class="cls-2" cx="724.98" cy="1014.12" r="9.66"/>
        <circle class="cls-2" cx="849.98" cy="1014.12" r="9.66"/>
        <circle class="cls-2" cx="974.99" cy="1014.12" r="9.66"/>
        <circle class="cls-2" cx="37.43" cy="1070.88" r="9.66"/>
        <circle class="cls-2" cx="162.44" cy="1070.88" r="9.66"/>
        <circle class="cls-2" cx="287.45" cy="1070.88" r="9.66"/>
        <circle class="cls-2" cx="412.45" cy="1070.88" r="9.66"/>
        <circle class="cls-2" cx="537.46" cy="1070.88" r="9.66"/>
        <circle class="cls-2" cx="662.47" cy="1070.88" r="9.66"/>
        <circle class="cls-2" cx="787.48" cy="1070.88" r="9.66"/>
        <circle class="cls-2" cx="912.49" cy="1070.88" r="9.66"/>
        <circle class="cls-2" cx="1037.5" cy="1070.88" r="9.66"/>
        <circle class="cls-2" cx="99.93" cy="1137.92" r="9.66"/>
        <circle class="cls-2" cx="224.94" cy="1137.92" r="9.66"/>
        <circle class="cls-2" cx="349.95" cy="1137.92" r="9.66"/>
        <circle class="cls-2" cx="474.96" cy="1137.92" r="9.66"/>
        <circle class="cls-2" cx="599.97" cy="1137.92" r="9.66"/>
        <circle class="cls-2" cx="724.98" cy="1137.92" r="9.66"/>
        <circle class="cls-2" cx="849.98" cy="1137.92" r="9.66"/>
        <circle class="cls-2" cx="974.99" cy="1137.92" r="9.66"/>
        <circle class="cls-2" cx="37.43" cy="1194.68" r="9.66"/>
        <circle class="cls-2" cx="162.44" cy="1194.68" r="9.66"/>
        <circle class="cls-2" cx="287.45" cy="1194.68" r="9.66"/>
        <circle class="cls-2" cx="412.45" cy="1194.68" r="9.66"/>
        <circle class="cls-2" cx="537.46" cy="1194.68" r="9.66"/>
        <circle class="cls-2" cx="662.47" cy="1194.68" r="9.66"/>
        <circle class="cls-2" cx="787.48" cy="1194.68" r="9.66"/>
        <circle class="cls-2" cx="912.49" cy="1194.68" r="9.66"/>
        <circle class="cls-2" cx="1037.5" cy="1194.68" r="9.66"/>
        <circle class="cls-2" cx="99.93" cy="1261.72" r="9.66"/>
        <circle class="cls-2" cx="224.94" cy="1261.72" r="9.66"/>
        <circle class="cls-2" cx="349.95" cy="1261.72" r="9.66"/>
        <circle class="cls-2" cx="474.96" cy="1261.72" r="9.66"/>
        <circle class="cls-2" cx="599.97" cy="1261.72" r="9.66"/>
        <circle class="cls-2" cx="724.98" cy="1261.72" r="9.66"/>
        <circle class="cls-2" cx="849.98" cy="1261.72" r="9.66"/>
        <circle class="cls-2" cx="974.99" cy="1261.72" r="9.66"/>
        <circle class="cls-2" cx="37.43" cy="1318.49" r="9.66"/>
        <circle class="cls-2" cx="162.44" cy="1318.49" r="9.66"/>
        <circle class="cls-2" cx="287.45" cy="1318.49" r="9.66"/>
        <circle class="cls-2" cx="412.45" cy="1318.49" r="9.66"/>
        <circle class="cls-2" cx="537.46" cy="1318.49" r="9.66"/>
        <circle class="cls-2" cx="662.47" cy="1318.49" r="9.66"/>
        <circle class="cls-2" cx="787.48" cy="1318.49" r="9.66"/>
        <circle class="cls-2" cx="912.49" cy="1318.49" r="9.66"/>
        <circle class="cls-2" cx="1037.5" cy="1318.49" r="9.66"/>
        <circle class="cls-2" cx="99.93" cy="1385.52" r="9.66"/>
        <circle class="cls-2" cx="224.94" cy="1385.52" r="9.66"/>
        <circle class="cls-2" cx="349.95" cy="1385.52" r="9.66"/>
        <circle class="cls-2" cx="474.96" cy="1385.52" r="9.66"/>
        <circle class="cls-2" cx="599.97" cy="1385.52" r="9.66"/>
        <circle class="cls-2" cx="724.98" cy="1385.52" r="9.66"/>
        <circle class="cls-2" cx="849.98" cy="1385.52" r="9.66"/>
        <circle class="cls-2" cx="974.99" cy="1385.52" r="9.66"/>
        <circle class="cls-2" cx="37.43" cy="1442.29" r="9.66"/>
        <circle class="cls-2" cx="162.44" cy="1442.29" r="9.66"/>
        <circle class="cls-2" cx="287.45" cy="1442.29" r="9.66"/>
        <circle class="cls-2" cx="412.45" cy="1442.29" r="9.66"/>
        <circle class="cls-2" cx="537.46" cy="1442.29" r="9.66"/>
        <circle class="cls-2" cx="662.47" cy="1442.29" r="9.66"/>
        <circle class="cls-2" cx="787.48" cy="1442.29" r="9.66"/>
        <circle class="cls-2" cx="912.49" cy="1442.29" r="9.66"/>
        <circle class="cls-2" cx="1037.5" cy="1442.29" r="9.66"/>
      </g>
    </g>
  </g>
</svg>